<svg width="512" height="512" xmlns="http://www.w3.org/2000/svg" class="svg-inline--fa fa-chart-line fa-w-16">

 <g>
  <title>background</title>
  <rect fill="none" id="canvas_background" height="602" width="802" y="-1" x="-1"/>
 </g>
 <g>
  <title>Layer 1</title>
  <path stroke="null" transform="rotate(-180 290.1954040527344,192.42567443847653) " id="svg_1" d="m118.60354,343.67566zm27.45487,-302.5l101.2913,0c18.34329,0 27.53209,22.21484 14.55967,35.20859l-27.79805,27.84375l62.94886,63.06094l62.94886,-63.05234c10.72456,-10.74219 28.10693,-10.74219 38.8229,0l58.93359,59.03047c5.36229,5.37109 5.36229,14.07656 0,19.44765l-19.40716,19.43906c-5.36228,5.3711 -14.05346,5.3711 -19.41574,0l-39.51785,-39.5914l-62.94886,63.05234c-10.72456,10.74219 -28.10693,10.74219 -38.8229,0l-82.36461,-82.5l-27.79805,27.84375c-12.97243,12.99375 -35.15082,3.78985 -35.15082,-14.58359l0,-101.44922c-0.00858,-7.59687 6.13446,-13.75 13.71886,-13.75z" fill="#ececec"/>
  <path stroke="null" id="svg_2" d="m462.25,366l-371.25,0l0,-261.25c0,-7.59688 -6.15312,-13.75 -13.75,-13.75l-27.5,0c-7.59687,0 -13.75,6.15312 -13.75,13.75l0,288.75c0,15.18516 12.31484,27.5 27.5,27.5l398.75,0c7.59687,0 13.75,-6.15313 13.75,-13.75l0,-28.06818l-13.75,-13.18182z" fill="#ececec"/>
 </g>
</svg>
