<svg width="512" height="512" xmlns="http://www.w3.org/2000/svg">
 <g>
  <title>ivann</title>
  <rect fill="none" id="canvas_background" height="514" width="514" y="-1" x="-1"/>
 </g>

 <g>
  <title>Layer 1</title>
  <ellipse stroke="#ececec" ry="32" rx="32" id="svg_3" cy="150" cx="44.6875" stroke-width="24" fill="#ececec"/>
  <ellipse stroke="#ececec" ry="32" rx="32" id="svg_33" cy="362" cx="44.6875" stroke-width="24" fill="#ececec"/>
  <ellipse stroke="#ececec" ry="32" rx="32" id="svg_34" cy="44.6875" cx="255.21875" stroke-width="24" fill="#ececec"/>
  <ellipse stroke="#ececec" ry="32" rx="32" id="svg_35" cy="256" cx="255.21875" stroke-width="24" fill="#ececec"/>
  <ellipse stroke="#ececec" ry="32" rx="32" id="svg_36" cy="467.3125" cx="256" stroke-width="24" fill="#ececec"/>
  <ellipse stroke="#ececec" ry="32" rx="32" id="svg_37" cy="150" cx="467.3125" stroke-width="24" fill="#ececec"/>
  <ellipse stroke="#ececec" ry="32" rx="32" id="svg_38" cy="362" cx="467.3125" stroke-width="24" fill="#ececec"/>
  <g stroke="null" id="svg_17">
   <line stroke="#ececec" id="svg_6" y2="360" x2="438" y1="257.18758" x1="290.43751" fill-opacity="null" stroke-opacity="null" stroke-width="16" fill="none"/>
   <line stroke="#ececec" id="svg_8" y2="360" x2="438" y1="472" x1="290.43751" fill-opacity="null" stroke-opacity="null" stroke-width="16" fill="none"/>
   <line stroke="#ececec" id="svg_12" y2="143.59367" x2="438" y1="40.78125" x1="290.43751" fill-opacity="null" stroke-opacity="null" stroke-width="16" fill="none"/>
   <line stroke="#ececec" id="svg_13" y2="143.59367" x2="438" y1="255.59367" x1="290.43751" fill-opacity="null" stroke-opacity="null" stroke-width="16" fill="none"/>
   <line stroke="#ececec" id="svg_14" y2="144" x2="438" y1="472" x1="290.43751" fill-opacity="null" stroke-opacity="null" stroke-width="16" fill="none"/>
   <line stroke="#ececec" id="svg_15" y2="360" x2="438" y1="40.78125" x1="290.43751" fill-opacity="null" stroke-opacity="null" stroke-width="16" fill="none"/>
  </g>
  <g stroke="null" id="svg_24">
   <line stroke="#ececec" id="svg_18" y2="360" x2="75.49985" y1="257.18758" x1="220.90622" fill-opacity="null" stroke-opacity="null" stroke-width="16" fill="none"/>
   <line stroke="#ececec" id="svg_19" y2="360" x2="75.49985" y1="472" x1="220.90622" fill-opacity="null" stroke-opacity="null" stroke-width="16" fill="none"/>
   <line stroke="#ececec" id="svg_20" y2="143.59367" x2="75.49985" y1="40.78125" x1="220.90622" fill-opacity="null" stroke-opacity="null" stroke-width="16" fill="none"/>
   <line stroke="#ececec" id="svg_21" y2="143.59367" x2="75.49985" y1="255.59367" x1="220.90622" fill-opacity="null" stroke-opacity="null" stroke-width="16" fill="none"/>
   <line stroke="#ececec" id="svg_22" y2="144" x2="75.49985" y1="472" x1="220.90622" fill-opacity="null" stroke-opacity="null" stroke-width="16" fill="none"/>
   <line stroke="#ececec" id="svg_23" y2="360" x2="75.49985" y1="40.78125" x1="220.90622" fill-opacity="null" stroke-opacity="null" stroke-width="16" fill="none"/>
  </g>
 </g>
</svg>
