<svg width="512" height="512" xmlns="http://www.w3.org/2000/svg">

 <g>
  <title>background</title>
  <rect fill="none" id="canvas_background" height="514" width="514" y="-1" x="-1"/>
 </g>
 <g>
  <title>Layer 1</title>
  <path stroke="null" id="svg_1" d="m449.32024,284.35913c1.84532,31.78058 -12.71223,62.33094 -38.7518,80.98922l15.78777,30.55036c4.71583,9.22662 5.33094,20.09353 1.23022,29.73022c-3.89568,9.63669 -11.89209,17.22302 -21.73382,20.5036l-16.19784,5.1259c-3.48561,1.23022 -7.3813,1.84532 -11.07194,1.84532c-10.45684,0 -20.29856,-4.71583 -27.06475,-13.1223l-43.46763,-51.259c-18.2482,-3.07554 -35.47123,-10.86691 -50.02878,-22.55396c-10.2518,3.07554 -20.5036,4.71583 -30.7554,4.71583c-18.04317,0 -36.08634,-5.53597 -51.259,-16.19784c-10.86691,3.28058 -21.93885,4.71583 -33.21583,4.51079c-16.19784,0.20504 -32.19065,-3.07554 -47.15828,-9.22662c-29.32015,-13.1223 -48.79857,-41.82734 -49.82375,-74.01799c-1.64029,-14.76259 0.82014,-29.73022 7.17626,-43.2626c-5.94604,-15.3777 -6.56115,-32.19065 -1.43525,-47.77339c7.58633,-19.47842 21.93885,-35.67626 39.77698,-45.92806c11.89209,-34.65108 45.31296,-57.82015 82.0144,-55.35972c32.80576,-30.7554 83.03958,-34.03598 119.53599,-7.58633c8.61151,-2.2554 17.6331,-3.48561 26.65468,-3.48561c27.8849,-0.61511 54.33454,11.68705 71.7626,33.6259c41.82734,10.86691 71.7626,48.18346 73.40289,91.65109c1.02518,22.759 -5.1259,45.10792 -17.6331,64.17627c1.43525,7.3813 2.2554,14.76259 2.2554,22.34892m-102.518,-28.91008c11.68705,1.43525 20.91367,10.2518 20.91367,21.93885a20.5036,20.5036 0 0 1 -20.5036,20.5036l-12.91727,0c-6.56115,18.45324 -18.04317,34.65108 -33.21583,46.95324c5.1259,1.84532 10.45684,2.8705 15.78777,4.30576c105.18347,-1.43525 92.88131,-65.61152 92.88131,-66.6367c-1.23022,-29.32015 -25.83454,-52.28418 -55.15468,-51.05396a20.5036,20.5036 0 0 1 -20.5036,-20.5036a20.5036,20.5036 0 0 1 20.5036,-20.5036c25.21943,0.61511 49.41368,10.04676 68.27699,26.65468c1.02518,-5.94604 1.64029,-12.09712 1.64029,-18.2482c-1.23022,-25.42446 -12.71223,-47.56835 -58.84533,-51.87411c-25.6295,-60.69066 -90.21584,-27.06475 -90.21584,-8.20144l0,0c-0.61511,4.71583 4.30576,14.76259 5.1259,15.3777a20.5036,20.5036 0 0 1 20.5036,20.5036c0,11.27698 -9.22662,20.5036 -20.5036,20.5036l0,0c-10.86691,-0.41007 -21.11871,-4.51079 -29.32015,-11.48202c-9.84173,6.35612 -21.11871,10.2518 -32.80576,11.48202l0,0c-11.68705,1.02518 -21.32374,-7.17626 -21.93885,-18.45324c-1.64029,-11.48202 6.76619,-21.52878 18.04317,-22.55396c3.28058,-0.41007 19.27338,-2.8705 19.27338,-15.78777l0,0c0,-13.53238 5.1259,-26.44964 13.94245,-36.70144c-18.86331,-5.1259 -39.16188,1.64029 -59.66548,26.44964c-37.72662,-5.94604 -53.10432,-0.82014 -64.3813,39.16188c-19.47842,9.63669 -29.73022,16.40288 -34.24101,36.90648c22.14389,-4.51079 44.90288,-2.66547 66.02159,5.1259c10.2518,3.89568 15.99281,15.3777 12.09712,26.44964c-3.89568,10.66187 -15.78777,15.99281 -26.44964,12.09712c-14.96763,-6.56115 -31.78058,-6.97122 -47.15828,-1.23022c-6.56115,5.53597 -6.56115,17.01799 -6.56115,26.03957c0,15.17266 7.58633,29.32015 20.5036,37.52159c10.86691,5.53597 22.96403,8.40648 35.06116,8.20144c-3.07554,-5.33094 -5.74101,-10.86691 -7.9964,-16.60792c-3.89568,-11.07194 2.05036,-23.16907 13.1223,-27.06475c11.07194,-3.89568 23.16907,2.05036 27.06475,13.1223c8.20144,23.3741 29.11511,39.36691 53.71943,42.03238c28.08993,-1.43525 53.10432,-18.04317 65.40648,-43.67267c4.71583,-28.29497 27.47482,-30.7554 52.48922,-30.7554m41.0072,153.16189l-12.71223,-26.65468l-14.55756,3.28058l20.5036,25.6295l6.76619,-2.2554m-95.34174,-176.53599c0.41007,-10.86691 -7.79137,-20.09353 -18.65828,-21.11871c-14.55756,-0.82014 -28.70504,4.10072 -39.57195,13.73741c-11.68705,11.89209 -17.83813,28.29497 -17.22302,44.90288a20.5036,20.5036 0 0 0 20.5036,20.5036c11.68705,0 20.5036,-9.22662 20.5036,-20.5036c0,-5.53597 1.43525,-11.07194 4.71583,-15.58274c2.46043,-2.05036 5.53597,-3.07554 8.81655,-3.07554c11.27698,0.61511 20.91367,-7.79137 20.91367,-18.86331z" fill="#ececec"/>
 </g>
</svg>
