<svg width="512" height="512" xmlns="http://www.w3.org/2000/svg">

 <g>
  <title>background</title>
  <rect fill="none" id="canvas_background" height="514" width="514" y="-1" x="-1"/>
 </g>
 <g>
  <title>Layer 1</title>
  <path fill="#ececec" stroke="null" id="svg_1" d="m394.72635,254.88889l-96.44444,-96.44445l0,72.33334l-192.88889,0l0,48.22222l192.88889,0l0,72.33333"/>
  <path stroke="null" transform="rotate(-180 231.11111450195315,254.88888549804688) " fill="#ececec" id="svg_2" d="m423.99999,399.55555l0,-289.33333c0,-26.76333 -21.69999,-48.22222 -48.22222,-48.22222l-289.33333,0a48.22222,48.22222 0 0 0 -48.22222,48.22222l0,72.33333l48.22222,0l0,-72.33333l289.33333,0l0,289.33333l-289.33333,0l0,-72.33333l-48.22222,0l0,72.33333a48.22222,48.22222 0 0 0 48.22222,48.22222l289.33333,0a48.22222,48.22222 0 0 0 48.22222,-48.22222z"/>
 </g>
</svg>