<svg width="512" height="512" xmlns="http://www.w3.org/2000/svg" class="svg-inline--fa fa-python fa-w-14">

 <g>
  <title>background</title>
  <rect fill="none" id="canvas_background" height="514" width="514" y="-1" x="-1"/>
 </g>
 <g>
  <title>Layer 1</title>
  <path id="svg_1" d="m471.8,200.5c-7.7,-30.9 -22.3,-54.2 -53.4,-54.2l-40.1,0l0,47.4c0,36.8 -31.2,67.8 -66.8,67.8l-106.8,0c-29.2,0 -53.4,25 -53.4,54.3l0,101.8c0,29 25.2,46 53.4,54.3c33.8,9.9 66.3,11.7 106.8,0c26.9,-7.8 53.4,-23.5 53.4,-54.3l0,-40.7l-106.7,0l0,-13.6l160.2,0c31.1,0 42.6,-21.7 53.4,-54.2c11.2,-33.5 10.7,-65.7 0,-108.6zm-153.6,203.5c11.1,0 20.1,9.1 20.1,20.3c0,11.3 -9,20.4 -20.1,20.4c-11,0 -20.1,-9.2 -20.1,-20.4c0.1,-11.3 9.1,-20.3 20.1,-20.3zm-118.4,-155.9l106.8,0c29.7,0 53.4,-24.5 53.4,-54.3l0,-101.9c0,-29 -24.4,-50.7 -53.4,-55.6c-35.8,-5.9 -74.7,-5.6 -106.8,0.1c-45.2,8 -53.4,24.7 -53.4,55.6l0,40.7l106.9,0l0,13.6l-147,0c-31.1,0 -58.3,18.7 -66.8,54.2c-9.8,40.7 -10.2,66.1 0,108.6c7.6,31.6 25.7,54.2 56.8,54.2l36.7,0l0,-48.8c0,-35.3 30.5,-66.4 66.8,-66.4zm-6.7,-142.6c-11.1,0 -20.1,-9.1 -20.1,-20.3c0.1,-11.3 9,-20.4 20.1,-20.4c11,0 20.1,9.2 20.1,20.4s-9,20.3 -20.1,20.3z" fill="#ececec"/>
 </g>
</svg>
