<svg width="512" height="512" xmlns="http://www.w3.org/2000/svg" class="svg-inline--fa fa-train fa-w-14">

 <g>
  <title>background</title>
  <rect fill="none" id="canvas_background" height="514" width="514" y="-1" x="-1"/>
 </g>
 <g>
  <title>Layer 1</title>
  <path stroke="null" id="svg_1" d="m442,120.5l0,212c0,42.9093 -51.03237,79.5 -107.67447,79.5l52.15531,41.1752c4.92486,3.88887 2.15644,11.8248 -4.10584,11.8248l-251.75,0c-6.27553,0 -9.01994,-7.94503 -4.10502,-11.8248l52.15448,-41.1752c-56.47978,0 -107.67447,-36.47559 -107.67447,-79.5l0,-212c0,-43.90636 53,-79.5 106,-79.5l159,0c53.82812,0 106,35.59364 106,79.5zm-39.75,112.625l0,-92.75c0,-10.9768 -8.8982,-19.875 -19.875,-19.875l-251.75,0c-10.9768,0 -19.875,8.8982 -19.875,19.875l0,92.75c0,10.9768 8.8982,19.875 19.875,19.875l251.75,0c10.9768,0 19.875,-8.8982 19.875,-19.875zm-145.75,53c-25.61225,0 -46.375,20.76275 -46.375,46.375s20.76275,46.375 46.375,46.375s46.375,-20.76275 46.375,-46.375s-20.76275,-46.375 -46.375,-46.375z" fill="#ececec"/>
 </g>
</svg>
