<svg width="512" height="512" xmlns="http://www.w3.org/2000/svg">

 <g>
  <title>background</title>
  <rect fill="none" id="canvas_background" height="514" width="514" y="-1" x="-1"/>
 </g>
 <g>
  <title>Layer 1</title>
  <path fill="#ececec" stroke="null" id="svg_2" d="m437.99998,372.34999l0,-37.1l-259.69999,0l0,-222.59999l37.1,0l-55.65,-55.65l-55.65,55.65l37.1,0l0,37.1l-74.2,0l0,37.1l74.2,0l0,148.39999c0,20.405 16.695,37.1 37.1,37.1l148.39999,0l0,37.1l-37.1,0l55.65,55.65l55.65,-55.65l-37.1,0l0,-37.1l74.2,0zm-222.59999,-185.49999l111.3,0l0,111.3l37.1,0l0,-111.3c0,-20.405 -16.695,-37.1 -37.1,-37.1l-111.3,0l0,37.1z"/>
 </g>
</svg>