<svg width="512" height="512" xmlns="http://www.w3.org/2000/svg" class="svg-inline--fa fa-database fa-w-14">

 <g>
  <title>background</title>
  <rect fill="none" id="canvas_background" height="514" width="514" y="-1" x="-1"/>
 </g>
 <g>
  <title>Layer 1</title>
  <path stroke="null" id="svg_1" d="m456.375,94.71441l0,40.44618c0,35.64367 -88.77119,64.71441 -198.1875,64.71441s-198.1875,-29.07074 -198.1875,-64.71441l0,-40.44618c0,-35.64367 88.77119,-64.71441 198.1875,-64.71441s198.1875,29.07074 198.1875,64.71441zm0,91.00434l0,91.00434c0,35.64367 -88.77119,64.71441 -198.1875,64.71441s-198.1875,-29.07074 -198.1875,-64.71441l0,-91.00434c42.57935,29.32379 120.51216,42.97484 198.1875,42.97484s155.60727,-13.65105 198.1875,-42.97484zm0,141.5625l0,91.00434c0,35.64367 -88.77119,64.71441 -198.1875,64.71441s-198.1875,-29.07074 -198.1875,-64.71441l0,-91.00434c42.57935,29.32379 120.51216,42.97484 198.1875,42.97484s155.60727,-13.65105 198.1875,-42.97484z" fill="#ececec"/>
 </g>
</svg>
